<svg xmlns="http://www.w3.org/2000/svg" viewBox="0 0 1000 600" font-family="ui-monospace, Menlo, monospace">
  <rect width="1000" height="600" fill="#0b0e15"></rect>

  <text x="20" y="28" fill="#e6e9f0" font-size="16" font-weight="700">AFTER A — 턴 상태 + 라운드 타임라인</text>
  <text x="20" y="48" fill="#8a93a6" font-size="12">상단 빈 공간을 &#34;지금 누구 차례 / 다음은 누구 / 이번 라운드 진행&#34;으로 채움</text>

  
  <rect x="20" y="64" width="960" height="40" rx="6" fill="#141a25" stroke="#2a3140"></rect>
  <text x="34" y="89" fill="#e6e9f0" font-size="12">Room  3f1f25d…</text>
  <rect x="880" y="74" width="40" height="20" rx="3" fill="#1f2735"></rect>
  <text x="900" y="88" fill="#cfd5e3" font-size="10" text-anchor="middle">테스트</text>
  <rect x="930" y="74" width="40" height="20" rx="3" fill="#1f2735"></rect>
  <text x="950" y="88" fill="#cfd5e3" font-size="10" text-anchor="middle">관전</text>

  
  <rect x="20" y="116" width="120" height="80" rx="6" fill="#141a25" stroke="#2a3140"></rect>
  <text x="32" y="134" fill="#e6e9f0" font-size="11">shark (GPT-4o)</text>
  <text x="32" y="152" fill="#8a93a6" font-size="10">남은 타일 14</text>
  <rect x="32" y="160" width="96" height="6" fill="#1f2735"></rect>
  <rect x="32" y="160" width="60" height="6" fill="#475569"></rect>

  <rect x="20" y="208" width="120" height="80" rx="6" fill="#141a25" stroke="#f59e0b" stroke-width="2"></rect>
  <text x="32" y="226" fill="#e6e9f0" font-size="11">네선용  내 차례</text>
  <text x="32" y="244" fill="#8a93a6" font-size="10">남은 타일 14</text>
  <rect x="32" y="252" width="96" height="6" fill="#1f2735"></rect>
  <rect x="32" y="252" width="80" height="6" fill="#f59e0b"></rect>

  <rect x="20" y="300" width="120" height="60" rx="6" fill="#141a25" stroke="#2a3140"></rect>
  <text x="32" y="318" fill="#8a93a6" font-size="10">드로우 더미</text>
  <text x="32" y="334" fill="#cfd5e3" font-size="14" font-weight="700">76</text>

  
  <rect x="160" y="116" width="660" height="76" rx="8" fill="#141a25" stroke="#2a3140"></rect>

  
  <circle cx="200" cy="154" r="28" fill="none" stroke="#1f2735" stroke-width="6"></circle>
  <circle cx="200" cy="154" r="28" fill="none" stroke="#34d399" stroke-width="6" stroke-dasharray="120 200" transform="rotate(-90 200 154)"></circle>
  <text x="200" y="159" fill="#e6e9f0" font-size="18" font-weight="700" text-anchor="middle">42</text>
  <text x="200" y="190" fill="#8a93a6" font-size="9" text-anchor="middle">남은 시간</text>

  
  <text x="244" y="138" fill="#8a93a6" font-size="10">지금 차례</text>
  <circle cx="252" cy="156" r="5" fill="#f59e0b"></circle>
  <text x="264" y="160" fill="#e6e9f0" font-size="14" font-weight="700">네선용 (나)</text>
  <text x="244" y="180" fill="#8a93a6" font-size="9">최초 등록 필요 · 30점↑</text>

  
  <line x1="430" y1="124" x2="430" y2="184" stroke="#2a3140"></line>
  <text x="448" y="138" fill="#8a93a6" font-size="10">다음 차례</text>
  <circle cx="456" cy="156" r="5" fill="#475569"></circle>
  <text x="468" y="160" fill="#cfd5e3" font-size="13">shark</text>
  <text x="448" y="180" fill="#8a93a6" font-size="9">예상 대기 ~45s</text>

  
  <line x1="600" y1="124" x2="600" y2="184" stroke="#2a3140"></line>
  <text x="618" y="138" fill="#8a93a6" font-size="10">라운드 7 / ∞</text>
  <g font-size="9">
    <rect x="618" y="148" width="14" height="14" fill="#1f2735"></rect>
    <rect x="634" y="148" width="14" height="14" fill="#1f2735"></rect>
    <rect x="650" y="148" width="14" height="14" fill="#34d399"></rect>
    <rect x="666" y="148" width="14" height="14" fill="#f59e0b"></rect>
    <rect x="682" y="148" width="14" height="14" fill="#1f2735" stroke="#2a3140"></rect>
    <rect x="698" y="148" width="14" height="14" fill="#1f2735" stroke="#2a3140"></rect>
  </g>
  <text x="618" y="180" fill="#8a93a6" font-size="9">초록=완료턴 · 주황=현재 · 회색=예정</text>

  
  <rect x="160" y="200" width="660" height="22" rx="3" fill="#2a200d" stroke="#5c4516"></rect>
  <text x="170" y="215" fill="#fbbf24" font-size="10">⚠  최초 등록은 30점 이상의 세트가 필요합니다.</text>

  
  <rect x="160" y="230" width="660" height="190" rx="8" fill="#0d2818" stroke="#1f3d2b"></rect>
  <text x="490" y="320" fill="#4b5d4f" font-size="13" text-anchor="middle">타일을 여기에 두세요</text>
  <rect x="740" y="386" width="70" height="24" rx="4" fill="none" stroke="#34d399"></rect>
  <text x="775" y="402" fill="#34d399" font-size="10" text-anchor="middle">+ 새 그룹</text>

  
  <text x="160" y="440" fill="#8a93a6" font-size="11">내 패 (145점)</text>
  <g transform="translate(160,452)" font-size="10" font-weight="700">
    <rect width="40" height="50" rx="4" fill="#dc2626"></rect><text x="20" y="30" fill="#fff" text-anchor="middle">1</text>
    <g transform="translate(44,0)"><rect width="40" height="50" rx="4" fill="#eab308"></rect><text x="20" y="30" fill="#fff" text-anchor="middle">1</text></g>
    <g transform="translate(88,0)"><rect width="40" height="50" rx="4" fill="#1d4ed8"></rect><text x="20" y="30" fill="#fff" text-anchor="middle">2</text></g>
    <g transform="translate(132,0)"><rect width="40" height="50" rx="4" fill="#eab308"></rect><text x="20" y="30" fill="#fff" text-anchor="middle">2</text></g>
    <g transform="translate(176,0)"><rect width="40" height="50" rx="4" fill="#1d4ed8"></rect><text x="20" y="30" fill="#fff" text-anchor="middle">3</text></g>
    <g transform="translate(220,0)"><rect width="40" height="50" rx="4" fill="#dc2626"></rect><text x="20" y="30" fill="#fff" text-anchor="middle">4</text></g>
    <g transform="translate(264,0)"><rect width="40" height="50" rx="4" fill="#1d4ed8"></rect><text x="20" y="30" fill="#fff" text-anchor="middle">6</text></g>
    <g transform="translate(308,0)"><rect width="40" height="50" rx="4" fill="#dc2626"></rect><text x="20" y="30" fill="#fff" text-anchor="middle">7</text></g>
    <g transform="translate(352,0)"><rect width="40" height="50" rx="4" fill="#eab308"></rect><text x="20" y="30" fill="#fff" text-anchor="middle">8</text></g>
    <g transform="translate(396,0)"><rect width="40" height="50" rx="4" fill="#1d4ed8"></rect><text x="20" y="30" fill="#fff" text-anchor="middle">9</text></g>
    <g transform="translate(440,0)"><rect width="40" height="50" rx="4" fill="#dc2626"></rect><text x="20" y="30" fill="#fff" text-anchor="middle">10</text></g>
    <g transform="translate(484,0)"><rect width="40" height="50" rx="4" fill="#eab308"></rect><text x="20" y="30" fill="#fff" text-anchor="middle">12</text></g>
  </g>

  
  <rect x="160" y="520" width="270" height="32" rx="4" fill="#1f2735" stroke="#2a3140"></rect>
  <text x="295" y="540" fill="#cfd5e3" font-size="11" text-anchor="middle">드로우</text>
  <rect x="440" y="520" width="120" height="32" rx="4" fill="#141a25" stroke="#2a3140"></rect>
  <text x="500" y="540" fill="#8a93a6" font-size="11" text-anchor="middle">↺ 초기화</text>
  <rect x="570" y="520" width="250" height="32" rx="4" fill="#a16207"></rect>
  <text x="695" y="540" fill="#fff" font-size="11" text-anchor="middle" font-weight="700">제출</text>

  
  <rect x="840" y="116" width="140" height="436" rx="6" fill="#141a25" stroke="#2a3140"></rect>
  <text x="852" y="134" fill="#e6e9f0" font-size="11">힌트 리스트</text>

  
  <rect x="158" y="114" width="664" height="80" rx="9" fill="none" stroke="#34d399" stroke-width="2" stroke-dasharray="4 4"></rect>
  <text x="824" y="108" fill="#34d399" font-size="10" text-anchor="end">↑ 빈 공간 → 턴 정보 스트립</text>
</svg>