<svg xmlns="http://www.w3.org/2000/svg" viewBox="0 0 1000 600" font-family="ui-monospace, Menlo, monospace">
  <rect width="1000" height="600" fill="#0b0e15"></rect>

  <text x="20" y="28" fill="#e6e9f0" font-size="16" font-weight="700">AFTER B — 액션 가이드 + 보드 확장</text>
  <text x="20" y="48" fill="#8a93a6" font-size="12">상단 영역을 &#34;내가 지금 무엇을 해야 하는가&#34;의 행동 안내 + 미니 통계로 사용. 보드 자체도 위로 확장.</text>

  
  <rect x="20" y="64" width="960" height="40" rx="6" fill="#141a25" stroke="#2a3140"></rect>
  <text x="34" y="89" fill="#e6e9f0" font-size="12">Room  3f1f25d…</text>
  <circle cx="180" cy="84" r="4" fill="#f59e0b"></circle>
  <text x="190" y="89" fill="#cfd5e3" font-size="11">네선용 차례 · 00:42</text>
  <rect x="380" y="72" width="120" height="24" rx="3" fill="#1f2735"></rect>
  <text x="440" y="89" fill="#cfd5e3" font-size="10" text-anchor="middle">라운드 7  ███▓░░</text>
  <rect x="880" y="74" width="40" height="20" rx="3" fill="#1f2735"></rect>
  <text x="900" y="88" fill="#cfd5e3" font-size="10" text-anchor="middle">테스트</text>
  <rect x="930" y="74" width="40" height="20" rx="3" fill="#1f2735"></rect>
  <text x="950" y="88" fill="#cfd5e3" font-size="10" text-anchor="middle">관전</text>

  
  <rect x="20" y="116" width="120" height="60" rx="6" fill="#141a25" stroke="#2a3140"></rect>
  <text x="32" y="134" fill="#e6e9f0" font-size="11">shark</text>
  <text x="108" y="134" fill="#8a93a6" font-size="10" text-anchor="end">2위</text>
  <text x="32" y="152" fill="#8a93a6" font-size="10">14장 · -32점</text>
  <rect x="32" y="160" width="96" height="4" fill="#1f2735"></rect>
  <rect x="32" y="160" width="60" height="4" fill="#475569"></rect>

  <rect x="20" y="184" width="120" height="60" rx="6" fill="#141a25" stroke="#f59e0b" stroke-width="2"></rect>
  <text x="32" y="202" fill="#e6e9f0" font-size="11">네선용</text>
  <text x="108" y="202" fill="#f59e0b" font-size="10" text-anchor="end">1위</text>
  <text x="32" y="220" fill="#8a93a6" font-size="10">14장 · -41점</text>
  <rect x="32" y="228" width="96" height="4" fill="#1f2735"></rect>
  <rect x="32" y="228" width="80" height="4" fill="#f59e0b"></rect>

  <rect x="20" y="252" width="120" height="48" rx="6" fill="#141a25" stroke="#2a3140"></rect>
  <text x="32" y="270" fill="#8a93a6" font-size="10">드로우 더미</text>
  <text x="32" y="290" fill="#cfd5e3" font-size="16" font-weight="700">76</text>
  <text x="108" y="290" fill="#8a93a6" font-size="9" text-anchor="end">/ 106</text>

  
  <rect x="160" y="116" width="660" height="92" rx="8" fill="#0d1a2a" stroke="#1d4ed8"></rect>
  <text x="180" y="138" fill="#60a5fa" font-size="10">YOUR MOVE</text>
  <text x="180" y="162" fill="#e6e9f0" font-size="18" font-weight="700">최초 등록까지 4점 더 필요해요.</text>
  <text x="180" y="184" fill="#cfd5e3" font-size="11">현재 보드에 26점을 올렸어요. 30점을 넘기면 등록이 완료됩니다.</text>

  
  <rect x="180" y="194" width="380" height="6" rx="3" fill="#1f2735"></rect>
  <rect x="180" y="194" width="330" height="6" rx="3" fill="#34d399"></rect>
  <line x1="560" y1="190" x2="560" y2="204" stroke="#fbbf24" stroke-width="2"></line>
  <text x="560" y="186" fill="#fbbf24" font-size="9" text-anchor="middle">30</text>
  <text x="180" y="218" fill="#8a93a6" font-size="9">26 / 30점</text>

  
  <line x1="600" y1="124" x2="600" y2="200" stroke="#1d4ed8" opacity="0.4"></line>
  <text x="618" y="138" fill="#8a93a6" font-size="9">내 핸드 가치</text>
  <text x="618" y="158" fill="#e6e9f0" font-size="16" font-weight="700">145</text>
  <text x="700" y="138" fill="#8a93a6" font-size="9">놓을 수 있는 세트</text>
  <text x="700" y="158" fill="#34d399" font-size="16" font-weight="700">3</text>
  <text x="780" y="138" fill="#8a93a6" font-size="9">남은 시간</text>
  <text x="780" y="158" fill="#e6e9f0" font-size="16" font-weight="700">42s</text>

  
  <rect x="160" y="216" width="660" height="204" rx="8" fill="#0d2818" stroke="#1f3d2b"></rect>
  
  <g transform="translate(180,234)" font-size="9" font-weight="700">
    <rect width="36" height="46" rx="3" fill="#dc2626"></rect><text x="18" y="28" fill="#fff" text-anchor="middle">7</text>
    <g transform="translate(38,0)"><rect width="36" height="46" rx="3" fill="#1d4ed8"></rect><text x="18" y="28" fill="#fff" text-anchor="middle">7</text></g>
    <g transform="translate(76,0)"><rect width="36" height="46" rx="3" fill="#000"></rect><text x="18" y="28" fill="#fff" text-anchor="middle">7</text></g>
  </g>
  <g transform="translate(340,234)" font-size="9" font-weight="700">
    <rect width="36" height="46" rx="3" fill="#1d4ed8"></rect><text x="18" y="28" fill="#fff" text-anchor="middle">9</text>
    <g transform="translate(38,0)"><rect width="36" height="46" rx="3" fill="#1d4ed8"></rect><text x="18" y="28" fill="#fff" text-anchor="middle">10</text></g>
    <g transform="translate(76,0)"><rect width="36" height="46" rx="3" fill="#1d4ed8"></rect><text x="18" y="28" fill="#fff" text-anchor="middle">11</text></g>
    <g transform="translate(114,0)"><rect width="36" height="46" rx="3" fill="#1d4ed8"></rect><text x="18" y="28" fill="#fff" text-anchor="middle">12</text></g>
  </g>
  <text x="490" y="380" fill="#4b5d4f" font-size="11" text-anchor="middle">타일을 여기에 두세요 (드래그로 자유 배치)</text>
  <rect x="740" y="386" width="70" height="24" rx="4" fill="none" stroke="#34d399"></rect>
  <text x="775" y="402" fill="#34d399" font-size="10" text-anchor="middle">+ 새 그룹</text>

  
  <text x="160" y="440" fill="#8a93a6" font-size="11">내 패</text>
  <g transform="translate(160,452)" font-size="10" font-weight="700">
    <rect width="40" height="50" rx="4" fill="#dc2626"></rect><text x="20" y="30" fill="#fff" text-anchor="middle">1</text>
    <g transform="translate(44,0)"><rect width="40" height="50" rx="4" fill="#eab308"></rect><text x="20" y="30" fill="#fff" text-anchor="middle">1</text></g>
    <g transform="translate(88,0)"><rect width="40" height="50" rx="4" fill="#1d4ed8"></rect><text x="20" y="30" fill="#fff" text-anchor="middle">2</text></g>
    <g transform="translate(132,0)"><rect width="40" height="50" rx="4" fill="#eab308"></rect><text x="20" y="30" fill="#fff" text-anchor="middle">2</text></g>
    <g transform="translate(176,0)"><rect width="40" height="50" rx="4" fill="#1d4ed8"></rect><text x="20" y="30" fill="#fff" text-anchor="middle">3</text></g>
    <g transform="translate(220,0)"><rect width="40" height="50" rx="4" fill="#dc2626"></rect><text x="20" y="30" fill="#fff" text-anchor="middle">4</text></g>
    <g transform="translate(264,0)"><rect width="40" height="50" rx="4" fill="#1d4ed8"></rect><text x="20" y="30" fill="#fff" text-anchor="middle">6</text></g>
    <g transform="translate(308,0)"><rect width="40" height="50" rx="4" fill="#dc2626"></rect><text x="20" y="30" fill="#fff" text-anchor="middle">7</text></g>
    <g transform="translate(352,0)"><rect width="40" height="50" rx="4" fill="#eab308"></rect><text x="20" y="30" fill="#fff" text-anchor="middle">8</text></g>
    <g transform="translate(396,0)"><rect width="40" height="50" rx="4" fill="#1d4ed8"></rect><text x="20" y="30" fill="#fff" text-anchor="middle">9</text></g>
    <g transform="translate(440,0)"><rect width="40" height="50" rx="4" fill="#dc2626"></rect><text x="20" y="30" fill="#fff" text-anchor="middle">10</text></g>
    <g transform="translate(484,0)"><rect width="40" height="50" rx="4" fill="#eab308"></rect><text x="20" y="30" fill="#fff" text-anchor="middle">12</text></g>
  </g>

  
  <rect x="160" y="520" width="270" height="32" rx="4" fill="#1f2735"></rect>
  <text x="295" y="540" fill="#cfd5e3" font-size="11" text-anchor="middle">드로우</text>
  <rect x="440" y="520" width="120" height="32" rx="4" fill="#141a25" stroke="#2a3140"></rect>
  <text x="500" y="540" fill="#8a93a6" font-size="11" text-anchor="middle">↺ 초기화</text>
  <rect x="570" y="520" width="250" height="32" rx="4" fill="#a16207"></rect>
  <text x="695" y="540" fill="#fff" font-size="11" text-anchor="middle" font-weight="700">제출</text>

  
  <rect x="840" y="116" width="140" height="436" rx="6" fill="#141a25" stroke="#2a3140"></rect>
  <text x="852" y="134" fill="#e6e9f0" font-size="11">힌트 리스트</text>

  <rect x="158" y="114" width="664" height="96" rx="9" fill="none" stroke="#34d399" stroke-width="2" stroke-dasharray="4 4"></rect>
  <text x="824" y="108" fill="#34d399" font-size="10" text-anchor="end">↑ 빈 공간 → 행동 코치 카드</text>
</svg>